# xmcd CD database file
#
# Track frame offsets:
#	183
#	29558
#	40683
#	57608
#	71758
#	94608
#	122358
#	151108
#
# Disc length: 2363 seconds
#
# Revision: 0
# Processed by: cddbd v1.5.1PL0 Copyright (c) Steve Scherf et al.
# Submitted via: CDex 1.51
#
DISCID=62093908
DTITLE=Gary Burton - Green Apple
DYEAR=1969
DGENRE=Jazz
TTITLE0=Walter L.
TTITLE1=I Want You
TTITLE2=I Rise Her Eyes
TTITLE3=Portsmouth Figurations
TTITLE4=Henninger Flats
TTITLE5=General Motor Well Laid Plain
TTITLE6=On The Third Day
TTITLE7=Ballett
EXTD=YEAR: 1969
EXTT0=
EXTT1=
EXTT2=
EXTT3=
EXTT4=
EXTT5=
EXTT6=
EXTT7=
PLAYORDER=
